<?xml version="1.0" encoding="utf-8"?>
<svg version="1.1" xmlns:xlink="http://www.w3.org/1999/xlink" width="30px" height="24px" xmlns="http://www.w3.org/2000/svg">
  <defs>
    <filter x="641px" y="1137px" width="30px" height="24px" filterUnits="userSpaceOnUse" id="filter3">
      <feOffset dx="0" dy="1" in="SourceAlpha" result="shadowOffsetInner" />
      <feGaussianBlur stdDeviation="1" in="shadowOffsetInner" result="shadowGaussian" />
      <feComposite in2="shadowGaussian" operator="atop" in="SourceAlpha" result="shadowComposite" />
      <feColorMatrix type="matrix" values="0 0 0 0 0  0 0 0 0 0  0 0 0 0 0  0 0 0 0.349019607843137 0  " in="shadowComposite" />
    </filter>
    <g id="widget4">
      <path d="M 656 1138  C 663.28 1138  669 1142.4  669 1148  C 669 1153.6  663.28 1158  656 1158  C 648.72 1158  643 1153.6  643 1148  C 643 1142.4  648.72 1138  656 1138  Z " fill-rule="nonzero" fill="#ffffff" stroke="none" />
      <path d="M 656 1138.5  C 663 1138.5  668.5 1142.68  668.5 1148  C 668.5 1153.32  663 1157.5  656 1157.5  C 649 1157.5  643.5 1153.32  643.5 1148  C 643.5 1142.68  649 1138.5  656 1138.5  Z " stroke-width="1" stroke="#d9d9d9" fill="none" />
    </g>
  </defs>
  <g transform="matrix(1 0 0 1 -641 -1137 )">
    <use xlink:href="#widget4" filter="url(#filter3)" />
    <use xlink:href="#widget4" />
  </g>
</svg>