<?xml version="1.0" encoding="utf-8"?>
<svg version="1.1" xmlns:xlink="http://www.w3.org/1999/xlink" width="70px" height="53px" xmlns="http://www.w3.org/2000/svg">
  <g transform="matrix(1 0 0 1 -408 -760 )">
    <path d="M 443 760  C 462.6 760  478 771.66  478 786.5  C 478 801.34  462.6 813  443 813  C 423.4 813  408 801.34  408 786.5  C 408 771.66  423.4 760  443 760  Z " fill-rule="nonzero" fill="#e9e9e9" stroke="none" />
    <path d="M 443 760.5  C 462.32 760.5  477.5 771.94  477.5 786.5  C 477.5 801.06  462.32 812.5  443 812.5  C 423.68 812.5  408.5 801.06  408.5 786.5  C 408.5 771.94  423.68 760.5  443 760.5  Z " stroke-width="1" stroke="#ffffff" fill="none" />
  </g>
</svg>