<?xml version="1.0" encoding="utf-8"?>
<svg version="1.1" xmlns:xlink="http://www.w3.org/1999/xlink" width="70px" height="53px" xmlns="http://www.w3.org/2000/svg">
  <g transform="matrix(1 0 0 1 -408 -760 )">
    <path d="M 440.049856073058 760.594358917383  C 441.030902858856 760.530710100604  442.015245241305 760.5  443 760.5  C 461.96524989985 760.5  477.5 772.073533356206  477.5 786.5  C 477.5 800.926466643794  461.96524989985 812.5  443 812.5  C 424.03475010015 812.5  408.5 800.926466643794  408.5 786.5  C 408.5 782.072482699134  410.012117545779 777.727411565726  412.839980839624 773.86163567909  L 442.799730320603 786.958139777267  A 0.5 0.5 0 0 0 443.495612735827 786.433909031732 L 440.049856072987 760.594358917388  Z " fill-rule="nonzero" fill="#99d5fd" stroke="none" />
    <path d="M 440.049856073058 760.594358917383  C 441.030902858856 760.530710100604  442.015245241305 760.5  443 760.5  C 461.96524989985 760.5  477.5 772.073533356206  477.5 786.5  C 477.5 800.926466643794  461.96524989985 812.5  443 812.5  C 424.03475010015 812.5  408.5 800.926466643794  408.5 786.5  C 408.5 782.072482699134  410.012117545779 777.727411565726  412.839980839624 773.86163567909  L 442.799730320603 786.958139777267  A 0.5 0.5 0 0 0 443.495612735827 786.433909031732 L 440.049856072987 760.594358917388  Z " stroke-width="1" stroke="#ffffff" fill="none" />
  </g>
</svg>