<?xml version="1.0" encoding="utf-8"?>
<svg version="1.1" xmlns:xlink="http://www.w3.org/1999/xlink" width="70px" height="53px" xmlns="http://www.w3.org/2000/svg">
  <g transform="matrix(1 0 0 1 -665 -760 )">
    <path d="M 697.049856073058 760.594358917383  C 698.030902858856 760.530710100604  699.015245241305 760.5  700 760.5  C 718.96524989985 760.5  734.5 772.073533356206  734.5 786.5  C 734.5 800.926466643794  718.96524989985 812.5  700 812.5  C 682.433539600683 812.5  667.590453283676 802.540985403699  665.701282668466 789.312037955689  L 700.033611708498 786.998868973832  A 0.5 0.5 0 0 0 700.495612735827 786.433909031732 L 697.049856072987 760.594358917388  Z " fill-rule="nonzero" fill="#0096fa" stroke="none" />
    <path d="M 697.049856073058 760.594358917383  C 698.030902858856 760.530710100604  699.015245241305 760.5  700 760.5  C 718.96524989985 760.5  734.5 772.073533356206  734.5 786.5  C 734.5 800.926466643794  718.96524989985 812.5  700 812.5  C 682.433539600683 812.5  667.590453283676 802.540985403699  665.701282668466 789.312037955689  L 700.033611708498 786.998868973832  A 0.5 0.5 0 0 0 700.495612735827 786.433909031732 L 697.049856072987 760.594358917388  Z " stroke-width="1" stroke="#ffffff" fill="none" />
  </g>
</svg>