<?xml version="1.0" encoding="utf-8"?>
<svg version="1.1" xmlns:xlink="http://www.w3.org/1999/xlink" width="17px" height="14px" xmlns="http://www.w3.org/2000/svg">
  <g transform="matrix(1 0 0 1 -252 -265 )">
    <path d="M 260.5 266  C 264.7 266  268 268.64  268 272  C 268 275.36  264.7 278  260.5 278  C 256.3 278  253 275.36  253 272  C 253 268.64  256.3 266  260.5 266  Z " fill-rule="nonzero" fill="#ffffff" stroke="none" />
    <path d="M 260.5 266  C 264.7 266  268 268.64  268 272  C 268 275.36  264.7 278  260.5 278  C 256.3 278  253 275.36  253 272  C 253 268.64  256.3 266  260.5 266  Z " stroke-width="2" stroke="#91d5ff" fill="none" />
  </g>
</svg>