<?xml version="1.0" encoding="utf-8"?>
<svg version="1.1" xmlns:xlink="http://www.w3.org/1999/xlink" width="61px" height="22px" xmlns="http://www.w3.org/2000/svg">
  <defs>
    <mask fill="white" id="clip9">
      <path d="M 61 18.8571428571429  L 61 3.14285714285714  C 61 1.38285714285714  59.3225 0  57.1875 0  L 0 0  L 0 22  L 57.1875 22  C 59.3225 22  61 20.6171428571429  61 18.8571428571429  Z " fill-rule="evenodd" />
    </mask>
  </defs>
  <g transform="matrix(1 0 0 1 -1127 -227 )">
    <path d="M 61 18.8571428571429  L 61 3.14285714285714  C 61 1.38285714285714  59.3225 0  57.1875 0  L 0 0  L 0 22  L 57.1875 22  C 59.3225 22  61 20.6171428571429  61 18.8571428571429  Z " fill-rule="nonzero" fill="#ffffff" stroke="none" transform="matrix(1 0 0 1 1127 227 )" />
    <path d="M 61 18.8571428571429  L 61 3.14285714285714  C 61 1.38285714285714  59.3225 0  57.1875 0  L 0 0  L 0 22  L 57.1875 22  C 59.3225 22  61 20.6171428571429  61 18.8571428571429  Z " stroke-width="2" stroke="#d9d9d9" fill="none" transform="matrix(1 0 0 1 1127 227 )" mask="url(#clip9)" />
  </g>
</svg>