<?xml version="1.0" encoding="utf-8"?>
<svg version="1.1" xmlns:xlink="http://www.w3.org/1999/xlink" width="17px" height="16px" xmlns="http://www.w3.org/2000/svg">
  <defs>
    <filter x="218px" y="1094px" width="17px" height="16px" filterUnits="userSpaceOnUse" id="filter10">
      <feOffset dx="0" dy="1" in="SourceAlpha" result="shadowOffsetInner" />
      <feGaussianBlur stdDeviation="1" in="shadowOffsetInner" result="shadowGaussian" />
      <feComposite in2="shadowGaussian" operator="atop" in="SourceAlpha" result="shadowComposite" />
      <feColorMatrix type="matrix" values="0 0 0 0 0  0 0 0 0 0  0 0 0 0 0  0 0 0 0.349019607843137 0  " in="shadowComposite" />
    </filter>
    <g id="widget11">
      <path d="M 226.5 1095  C 230.14 1095  233 1097.64  233 1101  C 233 1104.36  230.14 1107  226.5 1107  C 222.86 1107  220 1104.36  220 1101  C 220 1097.64  222.86 1095  226.5 1095  Z " fill-rule="nonzero" fill="#ffffff" stroke="none" />
      <path d="M 226.5 1095.5  C 229.86 1095.5  232.5 1097.92  232.5 1101  C 232.5 1104.08  229.86 1106.5  226.5 1106.5  C 223.14 1106.5  220.5 1104.08  220.5 1101  C 220.5 1097.92  223.14 1095.5  226.5 1095.5  Z " stroke-width="1" stroke="#d9d9d9" fill="none" />
    </g>
  </defs>
  <g transform="matrix(1 0 0 1 -218 -1094 )">
    <use xlink:href="#widget11" filter="url(#filter10)" />
    <use xlink:href="#widget11" />
  </g>
</svg>