<?xml version="1.0" encoding="utf-8"?>
<svg version="1.1" xmlns:xlink="http://www.w3.org/1999/xlink" width="8px" height="10px" xmlns="http://www.w3.org/2000/svg">
  <g transform="matrix(1 0 0 1 -35 -369 )">
    <path d="M 7.73611111111111 4.560546875  C 7.91203703703704 4.68424479166667  8 4.83072916666667  8 5  C 8 5.16927083333333  7.91203703703704 5.31575520833333  7.73611111111111 5.439453125  L 1.51388888888889 9.814453125  C 1.33796296296296 9.93815104166667  1.12962962962963 10  0.888888888888889 10  C 0.648148148148148 10  0.439814814814815 9.93815104166667  0.263888888888889 9.814453125  C 0.087962962962963 9.69075520833333  0 9.54427083333333  0 9.375  L 0 0.625  C 0 0.455729166666665  0.087962962962963 0.309244791666665  0.263888888888889 0.185546875  C 0.439814814814815 0.0618489583333326  0.648148148148148 0  0.888888888888889 0  C 1.12962962962963 0  1.33796296296296 0.0618489583333326  1.51388888888889 0.185546875  L 7.73611111111111 4.560546875  Z " fill-rule="nonzero" fill="#000000" stroke="none" transform="matrix(1 0 0 1 35 369 )" />
  </g>
</svg>