<?xml version="1.0" encoding="utf-8"?>
<svg version="1.1" xmlns:xlink="http://www.w3.org/1999/xlink" width="26px" height="24px" xmlns="http://www.w3.org/2000/svg">
  <defs>
    <filter x="572px" y="875px" width="26px" height="24px" filterUnits="userSpaceOnUse" id="filter14">
      <feOffset dx="0" dy="1" in="SourceAlpha" result="shadowOffsetInner" />
      <feGaussianBlur stdDeviation="1" in="shadowOffsetInner" result="shadowGaussian" />
      <feComposite in2="shadowGaussian" operator="atop" in="SourceAlpha" result="shadowComposite" />
      <feColorMatrix type="matrix" values="0 0 0 0 0  0 0 0 0 0  0 0 0 0 0  0 0 0 0.349019607843137 0  " in="shadowComposite" />
    </filter>
    <g id="widget15">
      <path d="M 585 876  C 591.16 876  596 880.4  596 886  C 596 891.6  591.16 896  585 896  C 578.84 896  574 891.6  574 886  C 574 880.4  578.84 876  585 876  Z " fill-rule="nonzero" fill="#ffffff" stroke="none" />
      <path d="M 585 876.5  C 590.88 876.5  595.5 880.68  595.5 886  C 595.5 891.32  590.88 895.5  585 895.5  C 579.12 895.5  574.5 891.32  574.5 886  C 574.5 880.68  579.12 876.5  585 876.5  Z " stroke-width="1" stroke="#d9d9d9" fill="none" />
    </g>
  </defs>
  <g transform="matrix(1 0 0 1 -572 -875 )">
    <use xlink:href="#widget15" filter="url(#filter14)" />
    <use xlink:href="#widget15" />
  </g>
</svg>