<?xml version="1.0" encoding="utf-8"?>
<svg version="1.1" xmlns:xlink="http://www.w3.org/1999/xlink" width="16px" height="11px" xmlns="http://www.w3.org/2000/svg">
  <g transform="matrix(1 0 0 1 -1565 -981 )">
    <path d="M 1573 982  C 1576.92 982  1580 983.98  1580 986.5  C 1580 989.02  1576.92 991  1573 991  C 1569.08 991  1566 989.02  1566 986.5  C 1566 983.98  1569.08 982  1573 982  Z " fill-rule="nonzero" fill="#ffffff" stroke="none" />
    <path d="M 1573 982  C 1576.92 982  1580 983.98  1580 986.5  C 1580 989.02  1576.92 991  1573 991  C 1569.08 991  1566 989.02  1566 986.5  C 1566 983.98  1569.08 982  1573 982  Z " stroke-width="2" stroke="#52c41a" fill="none" />
  </g>
</svg>