<?xml version="1.0" encoding="utf-8"?>
<svg version="1.1" xmlns:xlink="http://www.w3.org/1999/xlink" width="16px" height="11px" xmlns="http://www.w3.org/2000/svg">
  <g transform="matrix(1 0 0 1 -1564 -1096 )">
    <path d="M 1572 1097  C 1575.92 1097  1579 1098.98  1579 1101.5  C 1579 1104.02  1575.92 1106  1572 1106  C 1568.08 1106  1565 1104.02  1565 1101.5  C 1565 1098.98  1568.08 1097  1572 1097  Z " fill-rule="nonzero" fill="#ffffff" stroke="none" />
    <path d="M 1572 1097  C 1575.92 1097  1579 1098.98  1579 1101.5  C 1579 1104.02  1575.92 1106  1572 1106  C 1568.08 1106  1565 1104.02  1565 1101.5  C 1565 1098.98  1568.08 1097  1572 1097  Z " stroke-width="2" stroke="#f5222d" fill="none" />
  </g>
</svg>