<?xml version="1.0" encoding="utf-8"?>
<svg version="1.1" xmlns:xlink="http://www.w3.org/1999/xlink" width="71px" height="30px" xmlns="http://www.w3.org/2000/svg">
  <g transform="matrix(1 0 0 1 -1728 -232 )">
    <path d="M 1729 236  A 3 3 0 0 1 1732 233 L 1795 233  A 3 3 0 0 1 1798 236 L 1798 258  A 3 3 0 0 1 1795 261 L 1732 261  A 3 3 0 0 1 1729 258 L 1729 236  Z " fill-rule="nonzero" fill="#ffffff" stroke="none" />
    <path d="M 1728.5 236  A 3.5 3.5 0 0 1 1732 232.5 L 1795 232.5  A 3.5 3.5 0 0 1 1798.5 236 L 1798.5 258  A 3.5 3.5 0 0 1 1795 261.5 L 1732 261.5  A 3.5 3.5 0 0 1 1728.5 258 L 1728.5 236  Z " stroke-width="1" stroke-dasharray="9,4" stroke="#1890ff" fill="none" stroke-dashoffset="0.5" />
  </g>
</svg>