<?xml version="1.0" encoding="utf-8"?>
<svg version="1.1" xmlns:xlink="http://www.w3.org/1999/xlink" width="413px" height="184px" xmlns="http://www.w3.org/2000/svg">
  <g transform="matrix(1 0 0 1 -225 -311 )">
    <path d="M 226 313  A 1 1 0 0 1 227 312 L 636 312  A 1 1 0 0 1 637 313 L 637 493  A 1 1 0 0 1 636 494 L 227 494  A 1 1 0 0 1 226 493 L 226 313  Z " fill-rule="nonzero" fill="#ffffff" stroke="none" fill-opacity="0" />
    <path d="M 225.5 313  A 1.5 1.5 0 0 1 227 311.5 L 636 311.5  A 1.5 1.5 0 0 1 637.5 313 L 637.5 493  A 1.5 1.5 0 0 1 636 494.5 L 227 494.5  A 1.5 1.5 0 0 1 225.5 493 L 225.5 313  Z " stroke-width="1" stroke-dasharray="9,4" stroke="#e9e9e9" fill="none" stroke-dashoffset="0.5" />
  </g>
</svg>