<?xml version="1.0" encoding="utf-8"?>
<svg version="1.1" xmlns:xlink="http://www.w3.org/1999/xlink" width="16px" height="11px" xmlns="http://www.w3.org/2000/svg">
  <g transform="matrix(1 0 0 1 -1564 -809 )">
    <path d="M 1572 810  C 1575.92 810  1579 811.98  1579 814.5  C 1579 817.02  1575.92 819  1572 819  C 1568.08 819  1565 817.02  1565 814.5  C 1565 811.98  1568.08 810  1572 810  Z " fill-rule="nonzero" fill="#ffffff" stroke="none" />
    <path d="M 1572 810  C 1575.92 810  1579 811.98  1579 814.5  C 1579 817.02  1575.92 819  1572 819  C 1568.08 819  1565 817.02  1565 814.5  C 1565 811.98  1568.08 810  1572 810  Z " stroke-width="2" stroke="#1890ff" fill="none" />
  </g>
</svg>